<?xml version="1.0" standalone="no"?>
<!DOCTYPE svg PUBLIC "-//W3C//DTD SVG 20010904//EN"
 "http://www.w3.org/TR/2001/REC-SVG-20010904/DTD/svg10.dtd">
<svg version="1.0" xmlns="http://www.w3.org/2000/svg"
 width="788.000000pt" height="788.000000pt" viewBox="0 0 788.000000 788.000000"
 preserveAspectRatio="xMidYMid meet">
<metadata>
Created by potrace 1.14, written by Peter Selinger 2001-2017
</metadata>
<g transform="translate(0.000000,788.000000) scale(0.100000,-0.100000)"
fill="#000000" stroke="none">
<path d="M3811 7764 c-324 -69 -627 -421 -860 -999 -5 -11 -13 -31 -19 -45
-44 -101 -192 -585 -192 -628 -1 -46 -11 -47 -166 -4 -227 61 -423 101 -664
136 -146 21 -445 27 -577 13 -312 -35 -509 -126 -664 -307 -30 -36 -83 -145
-104 -215 -25 -80 -25 -272 -2 -373 36 -152 128 -374 205 -492 l29 -45 -31
-60 c-28 -55 -31 -68 -31 -160 0 -89 3 -106 28 -155 80 -160 247 -240 412
-197 l50 14 148 -150 148 -149 -148 -152 c-81 -83 -150 -153 -153 -156 -3 -3
-35 -39 -70 -80 -36 -41 -73 -83 -83 -95 -11 -11 -56 -69 -102 -130 -397 -528
-515 -960 -350 -1285 101 -199 364 -353 655 -385 36 -4 68 -9 73 -12 9 -5 343
-4 413 2 81 7 225 25 279 35 28 5 68 12 90 15 111 16 317 64 552 129 l53 14
10 -41 c79 -315 139 -500 237 -737 137 -331 313 -599 495 -758 236 -205 501
-250 750 -127 104 52 154 90 266 202 l104 104 46 -7 c162 -25 319 30 429 149
168 184 166 454 -5 639 l-53 57 34 108 c20 59 47 153 62 208 55 208 55 207 73
200 9 -4 26 -8 36 -11 11 -2 40 -10 65 -19 44 -14 264 -68 326 -80 127 -24
194 -36 215 -39 14 -2 45 -7 70 -11 78 -12 134 -19 261 -31 72 -6 319 -6 389
1 83 9 248 41 308 61 208 70 367 201 440 364 127 284 42 653 -253 1095 -147
220 -274 372 -530 633 -71 73 -131 136 -133 140 -1 4 51 59 115 123 65 64 163
165 217 226 97 108 100 111 130 101 17 -5 66 -9 108 -10 283 -4 493 273 414
545 -9 31 -36 85 -60 120 -41 63 -42 66 -29 97 21 50 62 209 69 270 31 238
-28 425 -182 575 -119 117 -322 207 -514 230 -25 3 -71 9 -103 14 -63 8 -384
7 -457 -3 -25 -3 -67 -8 -95 -12 -74 -8 -345 -54 -385 -64 -19 -5 -46 -11 -60
-14 -14 -2 -105 -26 -203 -52 -97 -26 -179 -45 -181 -43 -3 2 -7 16 -10 30
-23 132 -150 534 -226 719 -219 531 -507 873 -806 956 -78 22 -223 26 -303 8z
m245 -290 c73 -24 175 -96 244 -171 116 -127 246 -350 335 -573 21 -52 43
-108 50 -125 23 -54 93 -277 129 -415 20 -74 43 -156 50 -182 8 -27 11 -50 8
-52 -4 -2 -92 -36 -197 -76 -203 -77 -456 -183 -625 -262 l-104 -49 -141 65
c-222 102 -505 218 -724 297 l-63 22 5 41 c14 94 129 481 192 641 52 134 60
151 131 292 159 315 323 496 499 548 61 18 155 18 211 -1z m2429 -1519 c111
-7 144 -12 220 -32 177 -45 298 -140 336 -265 28 -92 23 -210 -15 -329 l-27
-84 -67 -1 c-185 -4 -342 -127 -397 -310 -23 -77 -15 -206 18 -278 15 -32 24
-64 19 -71 -21 -37 -405 -435 -419 -435 -3 0 -54 41 -113 91 -163 135 -346
276 -527 405 -138 98 -163 120 -164 143 -2 50 -6 106 -13 161 -3 30 -8 78 -11
105 -15 154 -24 233 -30 255 -2 8 -7 36 -10 62 -3 26 -8 64 -11 85 -3 21 -7
47 -9 58 -1 11 -7 47 -13 80 -6 33 -14 80 -17 105 -4 24 -9 48 -11 52 -8 12
34 26 241 78 193 49 314 75 395 85 25 3 56 8 70 10 14 3 45 7 70 10 25 3 56 7
68 10 13 2 85 7 160 11 76 3 139 7 140 9 2 2 9 2 15 0 7 -2 53 -6 102 -10z
m-4695 -9 c30 -4 82 -11 115 -16 33 -5 80 -12 105 -15 25 -3 52 -7 60 -10 8
-2 29 -7 45 -10 17 -3 44 -8 60 -11 114 -21 279 -62 428 -106 l68 -20 -5 -37
c-3 -20 -8 -49 -11 -66 -17 -87 -34 -189 -40 -235 -3 -25 -8 -57 -11 -72 -11
-72 -13 -87 -19 -138 -3 -30 -8 -72 -10 -92 -3 -21 -7 -55 -10 -75 -2 -21 -7
-69 -10 -108 -8 -97 -16 -180 -18 -181 -1 0 -40 -27 -87 -59 -178 -123 -512
-381 -635 -489 -82 -72 -67 -78 -234 92 l-149 152 12 48 c26 97 1 217 -62 300
-46 60 -65 76 -138 112 -54 28 -88 35 -191 39 -15 1 -90 132 -137 240 -117
267 -111 473 17 601 77 76 243 140 404 155 37 4 69 8 71 10 5 5 327 -3 382 -9z
m1338 -341 c276 -108 483 -198 475 -206 -4 -4 -60 -35 -123 -70 -136 -73 -447
-254 -543 -316 -75 -48 -88 -52 -82 -24 2 11 6 48 9 83 4 35 8 77 10 93 3 17
7 53 10 80 10 79 14 108 46 291 11 67 20 124 20 128 0 10 3 9 178 -59z m1813
53 c0 -7 2 -22 4 -33 2 -11 7 -40 11 -65 4 -25 9 -52 10 -60 11 -56 14 -81 20
-130 3 -30 8 -58 10 -61 2 -3 6 -39 10 -80 3 -41 7 -76 9 -79 2 -3 7 -37 10
-75 4 -38 9 -78 11 -88 2 -12 -1 -17 -10 -14 -10 4 -163 95 -296 177 -29 17
-205 118 -250 142 -25 14 -80 44 -123 68 l-79 42 104 47 c105 48 222 96 428
175 132 51 130 50 131 34z m-834 -494 c280 -145 587 -323 853 -496 l115 -75 1
-44 c1 -24 4 -116 8 -204 12 -278 8 -762 -9 -950 -2 -16 -3 -46 -4 -65 -1 -34
-6 -38 -128 -116 -156 -99 -401 -246 -503 -301 -41 -22 -102 -56 -135 -75 -33
-20 -127 -70 -209 -112 l-149 -76 -191 98 c-224 116 -461 252 -708 405 -250
156 -226 127 -235 282 -14 246 -6 1149 10 1161 162 116 642 400 927 547 85 44
159 84 165 88 18 18 47 8 192 -67z m-1592 -1213 c0 -290 -3 -437 -10 -433 -53
31 -418 315 -463 359 -8 7 -29 25 -48 39 -19 15 -34 30 -34 33 0 4 35 36 78
70 42 34 97 79 121 99 30 25 353 272 356 272 0 0 0 -198 0 -439z m3022 316
c114 -86 344 -268 387 -308 5 -5 4 -15 -4 -24 -27 -32 -527 -425 -541 -425 -2
0 -4 198 -4 439 0 291 3 437 10 432 6 -5 74 -56 152 -114z m-3703 -595 c50
-42 134 -111 186 -152 52 -41 97 -77 100 -80 7 -8 324 -238 378 -274 31 -21
42 -36 43 -55 0 -14 2 -37 4 -51 1 -14 6 -63 10 -110 3 -47 8 -98 10 -115 2
-16 6 -55 10 -85 7 -72 21 -169 30 -220 2 -14 7 -50 11 -80 3 -30 7 -57 9 -60
2 -3 6 -27 9 -54 4 -26 13 -80 20 -120 8 -39 12 -74 10 -78 -15 -25 -598 -158
-799 -183 -65 -7 -284 -19 -365 -19 -78 1 -218 12 -229 18 -3 2 -23 7 -44 10
-152 24 -308 121 -360 222 -85 169 -17 452 186 771 56 87 178 257 197 273 3 3
23 28 45 55 65 81 430 465 443 465 2 0 45 -35 96 -78z m4481 -84 c213 -219
282 -298 403 -459 222 -298 334 -556 335 -769 1 -82 -2 -103 -25 -151 -94
-204 -381 -296 -833 -266 -60 4 -126 9 -145 12 -19 2 -57 7 -84 11 -27 3 -58
8 -70 10 -12 2 -39 6 -61 9 -22 3 -47 7 -55 10 -8 2 -31 7 -50 10 -19 3 -42 8
-50 10 -8 2 -26 6 -40 9 -100 17 -420 107 -420 118 0 5 9 60 19 121 19 109 26
149 37 232 3 22 8 51 10 65 6 41 24 184 29 236 2 27 7 65 9 84 3 19 8 73 11
120 6 80 14 143 18 145 15 8 225 155 297 209 93 69 317 246 435 344 43 36 64
48 75 42 8 -5 78 -73 155 -152z m-3327 -736 c161 -100 278 -168 467 -272 83
-45 152 -84 154 -86 5 -4 -114 -57 -308 -135 -187 -76 -341 -132 -346 -127 -7
7 -67 370 -80 488 -12 107 -16 139 -21 173 -3 20 -3 37 1 37 4 0 64 -35 133
-78z m2048 41 c-3 -21 -8 -63 -11 -93 -4 -30 -8 -66 -10 -80 -3 -14 -9 -59
-15 -100 -15 -109 -61 -384 -65 -388 -3 -3 -213 71 -250 88 -11 5 -90 39 -175
74 -85 35 -173 72 -194 81 l-39 16 24 13 c21 11 332 186 474 267 28 16 95 57
150 93 55 35 104 64 108 65 4 1 6 -16 3 -36z m-882 -662 c59 -28 110 -51 113
-51 3 0 37 -14 76 -31 69 -30 119 -52 162 -69 11 -5 100 -39 197 -76 102 -39
175 -71 173 -78 -2 -6 -23 -81 -45 -166 -37 -141 -90 -320 -96 -329 -2 -1 -20
-5 -41 -7 -134 -16 -224 -57 -308 -141 -153 -153 -179 -395 -62 -586 l29 -47
-38 -43 c-124 -138 -239 -200 -374 -200 -82 0 -149 24 -233 81 -198 137 -398
479 -551 947 -52 157 -127 431 -129 473 l-2 36 80 29 c244 91 534 211 735 305
l104 49 51 -22 c27 -13 99 -46 159 -74z"/>
<path d="M3929 4656 c-2 -2 -33 -6 -69 -10 -140 -13 -305 -91 -405 -191 -139
-138 -214 -317 -213 -505 0 -120 20 -205 73 -315 72 -151 220 -288 370 -344
56 -21 73 -25 160 -40 48 -9 188 -7 230 2 228 51 406 187 500 382 51 106 66
169 70 285 4 134 -13 219 -70 335 -107 222 -342 383 -575 394 -30 2 -58 4 -61
7 -3 2 -8 2 -10 0z"/>
</g>
</svg>
