<?xml version="1.0" standalone="no"?>
<!DOCTYPE svg PUBLIC "-//W3C//DTD SVG 20010904//EN"
 "http://www.w3.org/TR/2001/REC-SVG-20010904/DTD/svg10.dtd">
<svg version="1.0" xmlns="http://www.w3.org/2000/svg"
 width="704.000000pt" height="704.000000pt" viewBox="0 0 704.000000 704.000000"
 preserveAspectRatio="xMidYMid meet">
<metadata>
Created by potrace 1.14, written by Peter Selinger 2001-2017
</metadata>
<g transform="translate(0.000000,704.000000) scale(0.100000,-0.100000)"
fill="#000000" stroke="none">
<path d="M89 7023 c6 -10 135 -184 288 -387 l278 -369 619 -486 c341 -267 621
-490 622 -496 2 -5 -69 -63 -156 -129 -109 -80 -157 -122 -152 -131 4 -7 178
-240 386 -518 l379 -505 36 16 c26 12 66 16 146 16 97 0 116 -3 165 -26 85
-40 137 -83 181 -150 49 -76 66 -135 78 -259 11 -116 42 -190 103 -244 56 -52
137 -86 214 -93 l64 -5 -24 44 c-48 87 -71 184 -71 304 0 95 3 116 23 152 35
66 76 107 139 138 49 25 70 29 138 29 125 0 211 -48 273 -153 21 -37 27 -60
30 -134 8 -156 -36 -280 -134 -386 l-55 -60 71 -22 c59 -18 88 -20 178 -17 59
3 119 10 135 16 l27 12 -40 59 c-81 119 -115 242 -108 394 3 78 8 100 30 137
62 106 148 154 273 154 68 0 89 -4 138 -29 63 -31 104 -72 139 -138 20 -36 23
-57 23 -152 0 -154 -37 -270 -120 -379 -23 -31 -31 -48 -23 -51 55 -18 105
-25 178 -25 73 0 123 7 178 25 8 3 1 19 -22 49 -79 104 -119 232 -120 381 -1
117 17 168 81 232 62 62 124 87 218 87 66 0 90 -4 135 -26 70 -33 117 -79 149
-148 21 -47 25 -68 24 -145 -2 -143 -35 -252 -109 -361 l-44 -64 27 -12 c65
-26 319 -19 337 10 2 4 -15 37 -39 72 -89 133 -129 342 -91 472 21 73 87 147
158 179 80 35 194 33 270 -4 62 -30 106 -74 140 -140 19 -36 22 -57 22 -157
-1 -127 -16 -195 -64 -290 -16 -32 -41 -71 -55 -88 -15 -18 -24 -36 -21 -41
22 -35 230 -42 330 -11 36 12 66 22 66 23 0 2 -21 25 -47 53 -97 100 -148 243
-141 389 7 125 61 211 166 262 48 23 70 28 137 28 67 0 89 -5 137 -28 71 -35
129 -100 151 -168 34 -105 13 -290 -48 -410 -14 -28 -25 -53 -25 -56 0 -15
125 8 177 32 115 52 176 139 195 278 14 98 34 127 87 127 73 -1 95 -47 79
-161 -25 -183 -122 -319 -283 -395 -107 -51 -236 -67 -355 -45 -41 8 -49 6
-110 -30 -95 -58 -176 -81 -307 -86 -125 -6 -221 10 -312 52 l-54 26 -71 -30
c-103 -43 -179 -55 -309 -49 -97 5 -125 10 -209 42 l-98 37 -41 -21 c-154 -79
-424 -79 -579 0 l-42 22 -47 -20 c-123 -52 -151 -57 -301 -57 -131 1 -152 3
-218 27 -40 15 -99 43 -130 62 -54 33 -60 34 -102 24 -25 -5 -88 -8 -140 -5
-180 10 -315 82 -416 221 l-22 30 -46 -41 c-119 -105 -291 -132 -437 -69 -12
5 -77 -75 -285 -351 l-269 -358 -292 -728 c-161 -400 -296 -734 -300 -742 -6
-10 -47 16 -167 106 -88 65 -163 119 -166 119 -4 0 -195 -250 -424 -555 -309
-412 -422 -556 -441 -561 -24 -6 -25 -9 -25 -85 l0 -79 3520 0 3520 0 0 3520
0 3520 -3480 0 c-3312 0 -3480 -1 -3471 -17z"/>
<path d="M0 3620 c0 -1778 2 -3231 3 -3229 16 19 735 977 741 986 4 8 -50 54
-154 133 -88 66 -160 124 -160 128 1 4 280 225 622 492 l620 485 269 357 c148
197 269 363 269 369 0 5 -11 25 -25 44 -33 43 -64 130 -71 203 -10 92 14 177
81 288 l19 32 -378 503 c-209 277 -383 508 -387 513 -5 5 -76 -42 -163 -107
-86 -64 -160 -118 -166 -119 -6 -2 -144 328 -306 732 l-295 734 -251 336
c-138 184 -255 339 -259 345 -5 5 -9 -1391 -9 -3225z"/>
<path d="M3483 3745 c-18 -8 -42 -29 -53 -47 -19 -29 -21 -44 -17 -118 5 -91
28 -165 72 -231 14 -22 30 -39 36 -39 6 0 34 24 63 53 64 64 96 140 99 237 1
49 -3 73 -16 94 -40 60 -115 81 -184 51z"/>
<path d="M4165 3748 c-39 -21 -65 -52 -75 -89 -13 -46 2 -156 30 -232 23 -61
84 -147 104 -147 19 0 82 95 107 160 13 34 23 87 26 140 4 74 2 89 -17 118
-33 53 -123 79 -175 50z"/>
<path d="M4830 3742 c-64 -32 -84 -112 -59 -234 15 -72 61 -167 98 -202 l31
-30 26 24 c76 73 134 286 100 374 -29 75 -119 107 -196 68z"/>
<path d="M5514 3746 c-56 -25 -74 -60 -74 -140 1 -120 36 -223 103 -301 l33
-38 31 39 c65 83 103 193 103 299 0 68 -13 99 -51 128 -34 25 -105 31 -145 13z"/>
<path d="M6185 3746 c-52 -23 -69 -51 -73 -120 -5 -77 18 -162 59 -223 29 -41
87 -93 105 -93 13 0 51 62 75 123 15 35 23 83 26 147 5 88 3 97 -18 124 -41
51 -113 69 -174 42z"/>
</g>
</svg>
